<?xml version="1.0" encoding="iso-8859-1"?>
<!-- Generator: Adobe Illustrator 19.0.0, SVG Export Plug-In . SVG Version: 6.00 Build 0)  -->
<svg version="1.1" id="Capa_1" xmlns="http://www.w3.org/2000/svg" xmlns:xlink="http://www.w3.org/1999/xlink" x="0px" y="0px"
	 viewBox="0 0 512 512" style="enable-background:new 0 0 512 512;" xml:space="preserve">
<g>
	<polygon style="fill:#FFE100;" points="452.267,349.867 162.133,349.867 119.467,145.067 486.4,145.067 	"/>
	<polygon style="fill:#FFA900;" points="460.8,145.067 426.667,349.867 452.267,349.867 486.4,145.067 	"/>
	<polygon style="fill:#FFFFFF;" points="145.067,145.067 187.733,349.867 162.133,349.867 119.467,145.067 	"/>
	<g>
		<path style="fill:#FFE100;" d="M281.6,452.267c0,18.85-15.283,34.133-34.133,34.133s-34.133-15.283-34.133-34.133
			s15.283-34.133,34.133-34.133S281.6,433.417,281.6,452.267"/>
		<path style="fill:#FFE100;" d="M443.733,452.267c0,18.85-15.283,34.133-34.133,34.133c-18.85,0-34.133-15.283-34.133-34.133
			s15.283-34.133,34.133-34.133C428.45,418.133,443.733,433.417,443.733,452.267"/>
	</g>
	<g>
		<path style="fill:#FFA900;" d="M409.6,418.133c-4.531,0-8.841,0.93-12.8,2.534c12.501,5.069,21.333,17.28,21.333,31.599
			s-8.832,26.53-21.333,31.599c3.959,1.604,8.269,2.534,12.8,2.534c18.85,0,34.133-15.283,34.133-34.133
			S428.45,418.133,409.6,418.133"/>
		<path style="fill:#FFA900;" d="M247.467,418.133c-4.531,0-8.841,0.93-12.8,2.534c12.501,5.069,21.333,17.28,21.333,31.599
			s-8.832,26.53-21.333,31.599c3.959,1.604,8.269,2.534,12.8,2.534c18.85,0,34.133-15.283,34.133-34.133
			S266.317,418.133,247.467,418.133"/>
	</g>
	<polygon style="fill:#FFE100;" points="102.4,145.071 503.467,145.071 503.467,110.938 102.4,110.938 	"/>
	<polygon style="fill:#FFA900;" points="477.867,145.071 503.467,145.071 503.467,110.938 477.867,110.938 	"/>
	<path style="fill:#FFE100;" d="M76.8,59.733H25.6c-9.429,0-17.067-7.637-17.067-17.067S16.171,25.6,25.6,25.6h51.2
		c9.429,0,17.067,7.637,17.067,17.067S86.229,59.733,76.8,59.733"/>
	<g>
		<path d="M169.075,341.333h275.968L476.326,153.6H129.958L169.075,341.333z M452.271,358.4H162.138
			c-4.045,0-7.535-2.842-8.354-6.793l-42.667-204.8c-0.529-2.517,0.111-5.129,1.732-7.125c1.621-1.988,4.053-3.149,6.622-3.149
			h366.933c2.5,0,4.89,1.101,6.502,3.021c1.63,1.911,2.33,4.446,1.911,6.921l-34.133,204.8
			C460.002,355.379,456.444,358.4,452.271,358.4L452.271,358.4z"/>
		<path d="M247.467,426.667c-14.114,0-25.6,11.486-25.6,25.6s11.486,25.6,25.6,25.6c14.114,0,25.6-11.486,25.6-25.6
			S261.581,426.667,247.467,426.667 M247.467,494.933c-23.526,0-42.667-19.14-42.667-42.667s19.14-42.667,42.667-42.667
			s42.667,19.14,42.667,42.667S270.993,494.933,247.467,494.933"/>
		<path d="M409.6,426.667c-14.114,0-25.6,11.486-25.6,25.6s11.486,25.6,25.6,25.6c14.114,0,25.6-11.486,25.6-25.6
			S423.714,426.667,409.6,426.667 M409.6,494.933c-23.526,0-42.667-19.14-42.667-42.667S386.074,409.6,409.6,409.6
			c23.526,0,42.667,19.14,42.667,42.667S433.126,494.933,409.6,494.933"/>
		<path d="M469.333,426.667H179.2c-3.917,0-7.322-2.662-8.277-6.46l-17.067-68.267c-1.143-4.574,1.638-9.207,6.212-10.351
			c4.565-1.152,9.199,1.638,10.342,6.204l15.454,61.807h283.469c4.719,0,8.533,3.823,8.533,8.533
			C477.867,422.844,474.052,426.667,469.333,426.667"/>
		<path d="M110.933,136.538h384v-17.067h-384V136.538z M503.467,153.604H102.4c-4.719,0-8.533-3.823-8.533-8.533v-34.133
			c0-4.719,3.814-8.533,8.533-8.533h401.067c4.719,0,8.533,3.814,8.533,8.533v34.133C512,149.781,508.186,153.604,503.467,153.604
			L503.467,153.604z"/>
		<path d="M25.6,34.133c-4.71,0-8.533,3.831-8.533,8.533S20.89,51.2,25.6,51.2h51.2c4.71,0,8.533-3.831,8.533-8.533
			s-3.823-8.533-8.533-8.533H25.6z M76.8,68.267H25.6c-14.114,0-25.6-11.486-25.6-25.6s11.486-25.6,25.6-25.6h51.2
			c14.114,0,25.6,11.486,25.6,25.6S90.914,68.267,76.8,68.267L76.8,68.267z"/>
		<path d="M136.533,119.467c-4.719,0-8.533-3.823-8.533-8.533v-25.6C128,66.509,112.691,51.2,93.867,51.2
			c-4.719,0-8.533-3.823-8.533-8.533s3.814-8.533,8.533-8.533c28.237,0,51.2,22.963,51.2,51.2v25.6
			C145.067,115.644,141.252,119.467,136.533,119.467"/>
		<path d="M204.8,298.667c-4.719,0-8.533-3.823-8.533-8.533V204.8c0-4.71,3.814-8.533,8.533-8.533c4.719,0,8.533,3.823,8.533,8.533
			v85.333C213.333,294.844,209.519,298.667,204.8,298.667"/>
		<path d="M256,298.667c-4.719,0-8.533-3.823-8.533-8.533V204.8c0-4.71,3.814-8.533,8.533-8.533c4.719,0,8.533,3.823,8.533,8.533
			v85.333C264.533,294.844,260.719,298.667,256,298.667"/>
		<path d="M307.2,298.667c-4.719,0-8.533-3.823-8.533-8.533V204.8c0-4.71,3.814-8.533,8.533-8.533c4.719,0,8.533,3.823,8.533,8.533
			v85.333C315.733,294.844,311.919,298.667,307.2,298.667"/>
		<path d="M358.4,298.667c-4.719,0-8.533-3.823-8.533-8.533V204.8c0-4.71,3.814-8.533,8.533-8.533c4.719,0,8.533,3.823,8.533,8.533
			v85.333C366.933,294.844,363.119,298.667,358.4,298.667"/>
		<path d="M409.6,298.667c-4.719,0-8.533-3.823-8.533-8.533V204.8c0-4.71,3.814-8.533,8.533-8.533c4.719,0,8.533,3.823,8.533,8.533
			v85.333C418.133,294.844,414.319,298.667,409.6,298.667"/>
	</g>
</g>
<g>
</g>
<g>
</g>
<g>
</g>
<g>
</g>
<g>
</g>
<g>
</g>
<g>
</g>
<g>
</g>
<g>
</g>
<g>
</g>
<g>
</g>
<g>
</g>
<g>
</g>
<g>
</g>
<g>
</g>
</svg>
