<svg id="svg" version="1.1" xmlns="http://www.w3.org/2000/svg" xmlns:xlink="http://www.w3.org/1999/xlink" width="400" height="400" viewBox="0, 0, 400,400"><g id="svgg"><path id="path0" d="M190.600 82.824 C 177.622 83.593,162.542 83.996,161.000 83.615 C 154.493 82.006,152.806 84.202,155.714 90.496 C 158.030 95.509,162.361 96.447,170.712 93.743 C 175.244 92.276,177.149 92.754,176.653 95.234 C 176.360 96.702,168.284 113.256,166.838 115.353 C 166.214 116.259,164.480 118.980,162.985 121.400 C 161.491 123.820,159.802 126.271,159.234 126.846 C 158.665 127.421,157.506 128.733,156.658 129.762 C 148.470 139.694,137.356 139.498,136.057 129.400 C 135.805 127.438,135.772 127.398,134.326 127.277 C 131.149 127.013,131.009 132.162,134.077 136.429 C 136.910 140.369,143.778 147.101,145.430 147.557 C 146.190 147.767,147.334 148.378,147.972 148.915 C 152.446 152.680,161.427 150.354,166.400 144.142 C 167.390 142.905,168.743 141.243,169.406 140.447 C 170.923 138.626,173.093 135.307,174.798 132.200 C 175.522 130.880,176.703 129.111,177.422 128.270 C 178.140 127.428,178.847 126.258,178.991 125.670 C 179.135 125.081,180.243 122.823,181.452 120.650 C 182.662 118.478,184.012 115.778,184.453 114.650 C 184.894 113.523,185.502 112.218,185.804 111.750 C 186.106 111.283,186.795 109.843,187.336 108.550 C 187.877 107.258,189.062 104.492,189.970 102.404 C 190.878 100.316,191.814 97.886,192.050 97.004 C 192.645 94.779,195.105 90.481,195.924 90.237 C 196.296 90.125,198.426 89.982,200.658 89.917 C 205.724 89.771,206.382 90.162,206.095 93.150 C 205.665 97.631,207.621 98.678,216.887 98.923 C 222.366 99.068,224.433 99.275,225.994 99.837 C 228.005 100.560,228.018 100.559,228.889 99.689 L 229.763 98.814 228.582 97.571 C 226.864 95.764,225.804 95.334,221.911 94.858 C 217.749 94.350,215.843 93.523,216.205 92.384 C 216.628 91.051,215.942 87.992,214.957 86.822 C 211.919 83.211,204.529 81.998,190.600 82.824 M210.244 90.306 C 210.488 90.468,211.004 91.230,211.390 92.000 C 211.803 92.824,211.875 93.194,211.566 92.900 C 211.277 92.625,210.570 92.400,209.996 92.400 C 208.251 92.400,207.197 91.357,208.176 90.600 C 209.032 89.939,209.573 89.862,210.244 90.306 M251.105 100.584 C 244.807 102.988,236.827 113.223,234.196 122.271 C 233.826 123.546,233.252 125.112,232.922 125.751 C 232.592 126.389,232.187 128.383,232.024 130.180 C 231.690 133.844,229.068 139.200,227.608 139.200 C 226.086 139.200,224.713 137.593,224.912 136.042 C 225.188 133.879,227.146 126.747,227.620 126.176 C 230.481 122.729,227.261 117.205,221.289 115.315 C 219.766 114.833,218.882 114.251,218.116 113.224 C 210.812 103.439,205.465 101.673,199.457 107.058 C 198.388 108.016,197.355 108.800,197.162 108.800 C 196.968 108.800,195.735 110.195,194.421 111.900 C 193.107 113.605,191.600 115.540,191.073 116.200 C 186.041 122.499,182.738 133.404,184.549 137.738 C 185.534 140.097,190.693 143.486,193.859 143.853 C 195.763 144.075,199.600 142.038,199.600 140.806 C 199.600 140.464,201.772 137.731,203.758 135.576 C 204.277 135.012,205.003 133.968,205.372 133.255 C 205.740 132.542,206.294 131.862,206.602 131.744 C 206.911 131.625,207.525 130.915,207.968 130.164 C 209.602 127.395,210.799 128.792,210.803 133.474 C 210.805 135.780,210.988 136.872,211.503 137.638 C 215.804 144.038,225.110 146.568,228.074 142.143 C 228.583 141.383,229.870 140.129,230.933 139.357 L 232.867 137.953 234.771 139.734 C 235.818 140.713,237.288 141.829,238.037 142.214 C 238.787 142.598,239.810 143.233,240.312 143.624 C 242.585 145.394,248.932 144.991,250.841 142.954 C 251.812 141.919,256.871 138.400,257.389 138.400 C 258.800 138.400,262.774 135.461,261.931 135.040 C 260.558 134.356,260.443 131.219,261.741 129.913 C 262.723 128.926,265.184 124.804,265.446 123.707 C 265.592 123.098,266.213 121.479,266.826 120.110 C 269.205 114.796,269.819 107.932,268.197 104.795 C 267.387 103.228,267.108 103.108,263.541 102.795 C 261.034 102.574,260.092 102.295,258.776 101.383 C 256.820 100.028,253.475 99.679,251.105 100.584 M263.166 113.821 C 263.817 115.159,263.225 119.892,262.213 121.437 C 261.906 121.905,261.363 123.292,261.006 124.520 C 260.649 125.747,259.892 127.437,259.323 128.275 C 258.754 129.113,258.116 130.294,257.905 130.900 C 257.404 132.338,256.110 132.378,255.756 130.966 C 255.237 128.900,255.828 122.293,256.682 120.600 C 257.127 119.720,257.797 118.063,258.171 116.919 C 259.392 113.187,262.053 111.536,263.166 113.821 M213.048 118.062 C 212.742 119.591,210.254 123.436,209.208 123.995 C 208.794 124.218,208.326 124.804,208.168 125.299 C 208.011 125.794,207.450 126.650,206.922 127.200 C 205.125 129.071,203.311 131.397,202.669 132.652 C 202.317 133.340,201.745 134.012,201.397 134.146 C 201.049 134.279,200.500 135.021,200.177 135.794 C 199.512 137.385,198.287 137.683,197.610 136.418 C 197.109 135.483,198.012 132.449,198.947 131.926 C 199.271 131.744,199.831 130.710,200.191 129.628 C 200.550 128.547,201.116 127.436,201.448 127.160 C 201.781 126.884,202.327 126.128,202.663 125.479 C 203.823 123.235,206.887 119.796,208.540 118.882 C 209.453 118.378,210.464 117.703,210.786 117.382 C 211.956 116.219,213.333 116.633,213.048 118.062 M250.157 124.233 C 250.291 124.581,250.400 125.652,250.400 126.613 C 250.400 128.958,251.131 132.268,252.049 134.084 C 254.066 138.071,252.325 140.800,247.763 140.800 C 244.628 140.800,243.703 136.583,245.763 131.687 C 246.293 130.428,247.029 128.230,247.399 126.803 C 248.270 123.444,249.437 122.356,250.157 124.233 M269.200 128.000 C 269.200 128.516,269.403 128.799,269.700 128.700 C 269.975 128.608,270.200 128.293,270.200 128.000 C 270.200 127.707,269.975 127.392,269.700 127.300 C 269.403 127.201,269.200 127.484,269.200 128.000 M266.552 131.453 C 266.137 132.446,266.075 133.035,266.356 133.316 C 267.036 133.996,268.000 132.844,268.000 131.351 C 268.000 129.582,267.314 129.630,266.552 131.453 M176.822 174.073 C 175.845 174.295,174.495 174.889,173.822 175.391 C 173.150 175.893,171.790 176.657,170.800 177.089 C 163.512 180.271,158.250 194.424,161.915 200.985 C 163.058 203.030,163.059 205.382,161.919 207.200 C 159.730 210.691,159.287 212.003,156.322 223.800 C 156.077 224.775,156.020 228.132,156.175 232.400 C 156.518 241.802,156.280 242.926,153.216 246.382 C 147.128 253.249,148.727 262.467,156.619 266.009 C 159.810 267.440,159.909 267.746,160.116 276.800 C 160.269 283.496,160.386 284.496,161.343 287.310 C 161.925 289.021,162.585 291.242,162.810 292.246 C 163.035 293.249,163.665 294.727,164.210 295.528 C 164.754 296.330,165.200 297.200,165.200 297.462 C 165.200 297.724,165.695 298.524,166.300 299.240 C 166.905 299.956,167.850 301.307,168.400 302.242 C 170.805 306.331,182.803 315.088,187.000 315.819 C 187.880 315.972,189.141 316.423,189.802 316.821 C 192.590 318.498,207.842 318.994,210.649 317.497 C 211.337 317.131,213.167 316.567,214.717 316.244 C 217.293 315.707,223.237 312.911,223.825 311.959 C 223.951 311.755,224.807 311.207,225.727 310.740 C 236.065 305.498,243.944 289.061,243.538 273.583 C 243.410 268.673,243.896 267.597,247.153 265.588 C 250.898 263.277,252.912 260.079,252.929 256.417 C 252.957 250.428,252.604 249.334,249.667 246.291 L 247.010 243.540 246.916 235.870 C 246.752 222.456,245.537 215.724,242.141 209.400 L 240.208 205.800 240.312 200.970 C 240.491 192.713,238.706 189.120,232.577 185.400 L 230.600 184.200 206.361 184.000 C 180.695 183.788,181.675 183.863,180.089 182.000 C 179.327 181.105,179.755 178.754,181.030 176.827 C 182.848 174.079,181.284 173.056,176.822 174.073 M175.017 182.414 C 175.289 182.640,175.709 183.610,175.951 184.571 C 176.334 186.093,176.664 186.473,178.504 187.511 L 180.618 188.704 201.209 188.752 C 228.988 188.816,230.081 188.889,232.176 190.822 C 236.451 194.767,237.411 199.529,234.824 203.959 C 231.459 209.721,231.788 209.668,200.400 209.518 L 175.800 209.400 172.647 208.229 C 169.607 207.101,169.459 206.985,168.536 205.029 C 168.010 203.913,167.198 202.399,166.732 201.664 C 164.815 198.641,165.352 190.144,167.673 186.800 C 170.954 182.072,173.077 180.804,175.017 182.414 M232.898 213.896 C 237.480 219.029,240.452 238.645,237.619 245.051 C 236.543 247.483,236.579 247.872,238.000 249.200 L 239.200 250.321 239.200 261.570 C 239.200 271.951,239.136 272.997,238.370 275.110 C 237.914 276.369,237.182 278.660,236.744 280.200 C 234.437 288.307,226.516 299.196,220.855 302.044 C 220.275 302.335,219.080 303.056,218.200 303.645 C 214.818 305.909,213.022 305.202,210.757 300.714 C 209.017 297.268,207.704 296.758,201.059 296.947 C 195.111 297.117,194.457 297.413,192.940 300.618 C 190.802 305.133,189.072 305.867,185.676 303.700 C 184.383 302.875,182.544 301.750,181.591 301.200 C 179.353 299.909,174.498 295.348,173.714 293.800 C 173.380 293.140,172.777 292.239,172.375 291.797 C 171.451 290.784,168.400 284.884,168.400 284.112 C 168.400 283.794,167.867 282.320,167.216 280.836 C 166.564 279.352,165.909 277.342,165.760 276.369 C 165.611 275.396,165.268 274.150,164.999 273.600 C 163.132 269.793,163.302 251.524,165.222 249.514 C 166.446 248.233,166.362 247.629,164.600 245.019 C 162.442 241.824,164.013 224.423,167.003 218.400 C 167.494 217.410,168.031 216.150,168.196 215.600 C 168.940 213.112,166.598 213.281,200.962 213.235 C 230.364 213.196,232.308 213.236,232.898 213.896 M182.500 241.232 C 182.975 241.509,183.425 241.509,183.900 241.232 C 184.471 240.899,184.342 240.824,183.200 240.824 C 182.058 240.824,181.929 240.899,182.500 241.232 M219.200 241.200 C 219.200 241.420,220.010 241.600,221.000 241.600 C 221.990 241.600,222.800 241.420,222.800 241.200 C 222.800 240.980,221.990 240.800,221.000 240.800 C 220.010 240.800,219.200 240.980,219.200 241.200 M173.561 242.845 C 172.989 243.055,172.300 243.639,172.030 244.144 C 171.760 244.648,170.907 245.290,170.134 245.569 C 168.189 246.273,167.372 248.151,168.385 249.591 C 168.776 250.146,169.227 251.023,169.387 251.540 C 169.797 252.859,170.314 252.160,170.792 249.641 C 171.229 247.339,173.658 244.400,175.124 244.400 C 175.522 244.400,176.196 244.133,176.624 243.808 C 178.080 242.696,175.863 242.000,173.561 242.845 M211.266 243.032 C 210.005 243.924,210.710 244.581,212.556 244.235 C 213.825 243.997,214.716 243.383,214.339 243.006 C 213.781 242.447,212.073 242.462,211.266 243.032 M188.400 243.161 C 188.400 243.538,190.527 244.400,191.460 244.400 C 192.211 244.400,192.139 243.339,191.367 243.043 C 190.405 242.673,188.400 242.753,188.400 243.161 M228.000 243.510 C 228.000 243.815,228.722 244.277,230.534 245.132 C 230.717 245.218,230.807 244.864,230.734 244.345 C 230.601 243.406,228.000 242.612,228.000 243.510 M208.882 245.302 C 208.653 245.577,208.406 246.395,208.333 247.118 L 208.200 248.432 204.000 248.620 C 201.690 248.723,198.810 248.851,197.600 248.904 L 195.400 249.000 193.708 252.200 C 192.777 253.960,191.831 256.054,191.605 256.853 C 191.308 257.906,190.856 258.446,189.961 258.816 C 188.901 259.255,188.822 259.381,189.404 259.706 C 189.874 259.969,190.564 259.867,191.661 259.373 C 194.484 258.099,195.322 258.766,195.452 262.393 C 195.511 264.039,195.657 265.772,195.775 266.245 C 195.974 267.037,195.696 267.172,192.170 267.986 C 189.475 268.609,187.973 269.187,187.074 269.948 C 183.981 272.566,182.300 273.362,179.512 273.529 C 172.637 273.939,176.453 279.448,185.379 282.000 C 186.959 282.451,187.770 282.884,187.713 283.246 C 187.665 283.551,187.515 284.262,187.380 284.826 C 186.797 287.267,191.867 291.391,196.708 292.414 C 204.849 294.136,215.600 290.235,215.600 285.560 C 215.600 283.163,213.229 283.076,210.800 285.385 C 205.566 290.359,197.235 290.205,191.168 285.023 C 190.381 284.350,189.406 283.610,189.002 283.377 C 188.388 283.025,188.723 282.836,191.033 282.231 C 192.555 281.833,195.008 280.792,196.483 279.918 C 200.428 277.581,201.664 277.533,205.441 279.571 C 212.213 283.224,217.041 283.313,222.738 279.893 C 228.025 276.719,228.122 273.600,222.934 273.600 C 220.321 273.600,219.895 273.486,218.714 272.469 C 216.248 270.346,212.482 268.324,210.126 267.859 L 207.800 267.400 207.681 264.201 C 207.527 260.039,207.090 259.679,205.800 262.654 C 204.952 264.608,204.453 265.206,203.014 265.993 L 201.260 266.950 199.582 265.787 C 196.613 263.730,196.401 262.951,196.887 255.898 C 197.021 253.966,197.251 253.385,198.323 252.279 C 199.025 251.555,199.600 250.668,199.600 250.308 C 199.600 249.497,200.798 249.084,202.159 249.426 C 203.541 249.772,206.209 253.734,206.878 256.432 C 207.447 258.730,208.607 259.536,210.617 259.031 C 211.988 258.687,211.887 257.515,210.218 254.372 C 208.376 250.902,208.044 248.846,209.164 247.833 C 209.639 247.403,210.000 246.584,210.000 245.938 C 210.000 244.727,209.564 244.479,208.882 245.302 M232.000 247.944 C 232.000 252.466,232.751 254.275,233.539 251.647 C 233.794 250.794,234.273 249.872,234.602 249.598 C 235.874 248.543,234.713 246.400,232.869 246.400 C 232.127 246.400,232.000 246.626,232.000 247.944 M182.396 249.300 C 180.728 252.035,181.754 254.682,184.632 255.068 C 187.753 255.487,189.419 252.012,187.380 249.338 C 185.914 247.416,183.555 247.399,182.396 249.300 M215.560 249.242 C 213.113 251.862,214.711 254.800,218.584 254.800 C 220.444 254.800,220.942 254.417,221.363 252.660 C 222.279 248.829,218.194 246.423,215.560 249.242 M159.561 250.100 C 160.063 251.423,159.860 259.900,159.314 260.446 C 158.288 261.472,156.140 260.488,154.780 258.369 L 153.492 256.361 154.214 253.695 C 155.307 249.654,158.562 247.466,159.561 250.100 M247.075 250.500 C 248.953 252.576,249.195 255.008,247.829 258.096 C 246.602 260.871,244.895 261.652,243.480 260.088 C 242.800 259.337,242.694 251.142,243.351 250.080 C 243.862 249.252,246.183 249.514,247.075 250.500 M229.604 256.195 C 229.089 256.815,229.309 258.000,229.938 258.000 C 230.572 258.000,231.299 256.834,231.057 256.205 C 230.763 255.438,230.235 255.434,229.604 256.195 M179.600 261.552 C 179.600 262.211,181.399 262.521,183.442 262.215 C 185.790 261.862,185.607 261.731,182.300 261.394 C 180.461 261.207,179.600 261.257,179.600 261.552 M218.278 261.456 C 217.483 262.250,220.162 262.773,221.801 262.144 C 222.332 261.940,222.359 261.820,221.934 261.550 C 221.307 261.154,218.649 261.085,218.278 261.456 " stroke="none" fill="#fadf6e" fill-rule="evenodd"></path></g></svg>